<svg width="106" height="142" viewBox="0 0 106 142" fill="none" xmlns="http://www.w3.org/2000/svg">
<path d="M100.321 129.829H95.3243C92.4471 118.793 83.5886 91.3669 62.01 71C83.5886 50.6331 92.4471 23.2069 95.3243 12.1714H100.321C103.426 12.1714 106 9.41257 106 6.08571C106 2.75886 103.426 0 100.321 0H5.67857C2.57429 0 0 2.75886 0 6.08571C0 9.41257 2.57429 12.1714 5.67857 12.1714H10.6757C13.5529 23.2069 22.4114 50.6331 43.99 71C22.4114 91.3669 13.5529 118.793 10.6757 129.829H5.67857C2.57429 129.829 0 132.587 0 135.914C0 139.241 2.57429 142 5.67857 142H100.321C103.426 142 106 139.241 106 135.914C106 132.587 103.426 129.829 100.321 129.829ZM22.5629 12.1714H83.3614C79.9543 23.6937 71.2471 46.6571 52.9243 63.1291C34.6014 46.576 25.8943 23.6937 22.4871 12.1714H22.5629ZM53 78.8709C71.3229 95.424 80.03 118.306 83.4371 129.829H22.5629C25.97 118.306 34.6771 95.3429 53 78.8709Z" fill="black"/>
</svg>
